<svg width="25" height="25" viewBox="0 0 25 25" fill="none" xmlns="http://www.w3.org/2000/svg">
<path d="M24.5 12.8631C24.4619 15.5916 23.3005 18.5135 20.866 20.8967C19.1485 22.5781 17.084 23.6309 14.7092 24.0623C12.1019 24.5359 9.58789 24.2265 7.20334 23.069C4.85146 21.9273 3.07608 20.1813 1.86821 17.8766C0.862954 15.9585 0.417924 13.9079 0.512393 11.7535C0.645555 8.7167 1.74351 6.06715 3.8774 3.87158C5.77125 1.923 8.08701 0.767773 10.7896 0.397946C13.2502 0.0612349 15.6105 0.413868 17.8406 1.51122C20.1455 2.64538 21.9053 4.34916 23.1136 6.60332C24.0525 8.35505 24.5054 10.2299 24.5 12.8631ZM12.3078 19.4228C12.3461 19.3181 12.3678 19.2659 12.3846 19.2122C12.9121 17.5203 13.4403 15.8286 13.9639 14.1355C14.0002 14.0181 14.0551 13.9562 14.1773 13.9193C15.2598 13.5923 16.3401 13.2579 17.4209 12.9252C18.105 12.7145 18.7887 12.5028 19.5038 12.282C19.4158 12.2484 19.3585 12.2226 19.2989 12.2043C17.5943 11.6792 15.8901 11.153 14.1835 10.6342C14.0533 10.5946 13.9999 10.5293 13.9621 10.4073C13.4383 8.71437 12.9095 7.0229 12.3814 5.33123C12.3653 5.27964 12.3435 5.22978 12.3108 5.14313C12.2799 5.22867 12.2628 5.27111 12.2492 5.31464C11.7208 7.00642 11.1915 8.69792 10.6672 10.3909C10.6258 10.5246 10.5645 10.5962 10.4216 10.6396C8.80943 11.1287 7.19996 11.6267 5.58988 12.1227C5.44139 12.1684 5.29368 12.2167 5.11001 12.2751C5.19831 12.3052 5.24678 12.3231 5.29611 12.3382C6.99527 12.8607 8.69386 13.385 10.3948 13.9016C10.5529 13.9496 10.6274 14.0264 10.6747 14.184C10.9244 15.016 11.1879 15.8439 11.4471 16.6731C11.7287 17.5736 12.0108 18.4739 12.3078 19.4228Z" fill="#665CD1"/>
</svg>
