<svg width="91" height="87" viewBox="0 0 91 87" fill="none" xmlns="http://www.w3.org/2000/svg">
<path d="M34.3045 17.1733C34.3045 26.5381 26.7128 34.1298 17.348 34.1298C7.98318 34.1298 0.391479 26.5381 0.391479 17.1733C0.391479 7.80849 7.98318 0.216797 17.348 0.216797C26.7128 0.216797 34.3045 7.80849 34.3045 17.1733Z" fill="#FEFEFE"/>
<path fill-rule="evenodd" clip-rule="evenodd" d="M17.348 30.2168C24.5517 30.2168 30.3915 24.377 30.3915 17.1733C30.3915 9.9696 24.5517 4.12984 17.348 4.12984C10.1443 4.12984 4.30452 9.9696 4.30452 17.1733C4.30452 24.377 10.1443 30.2168 17.348 30.2168ZM17.348 34.1298C26.7128 34.1298 34.3045 26.5381 34.3045 17.1733C34.3045 7.80849 26.7128 0.216797 17.348 0.216797C7.98318 0.216797 0.391479 7.80849 0.391479 17.1733C0.391479 26.5381 7.98318 34.1298 17.348 34.1298Z" fill="#665CD1"/>
<path d="M17.1313 7.22266L14.7393 14.9396L7.02246 17.3312L14.7393 19.7232L17.1313 27.44L19.523 19.7232L27.2399 17.3312L19.523 14.9396L17.1313 7.22266Z" fill="#665CD1"/>
<path fill-rule="evenodd" clip-rule="evenodd" d="M32.122 27.3272C31.0534 25.4762 28.6866 24.8421 26.8357 25.9107C24.9848 26.9793 24.3507 29.3461 25.4192 31.197L43.1338 61.8798C43.426 62.3859 43.2526 63.0329 42.7465 63.325C42.4192 63.5142 42.0158 63.5142 41.6884 63.325L32.3008 57.9048C30.4498 56.8366 28.0831 57.4705 27.0145 59.3213C25.9458 61.1722 26.58 63.5389 28.4309 64.6079L50.2927 77.2294C50.9458 77.607 51.5594 78.0479 52.1625 78.5005C58.8628 83.5313 68.185 84.3863 75.8995 79.9326C86.2117 73.9783 89.7445 60.7926 83.7908 50.4798L71.905 29.8928C70.8367 28.0419 68.47 27.4077 66.6191 28.4764C64.7676 29.545 64.1337 31.9118 65.2026 33.7627L71.56 44.7744C72.0178 45.5676 71.7458 46.5818 70.9528 47.0402C70.1597 47.4981 69.145 47.2261 68.6871 46.4331L61.5002 33.9849C60.4319 32.134 58.0652 31.4998 56.2143 32.5684C54.3634 33.6371 53.7289 36.0038 54.7978 37.8548L61.9847 50.3031C62.4426 51.0961 62.1706 52.1103 61.3776 52.5681C60.5839 53.0266 59.5697 52.7546 59.1119 51.9616L50.2664 36.6407C49.1978 34.7897 46.831 34.1556 44.9802 35.2242C43.1292 36.2928 42.495 38.6596 43.5636 40.5105L52.4091 55.8309C52.867 56.6246 52.5953 57.6387 51.802 58.0966C51.0087 58.555 49.9944 58.2831 49.5364 57.4894L32.122 27.3272Z" fill="#FEFEFE"/>
<path fill-rule="evenodd" clip-rule="evenodd" d="M34.4177 54.6083L22.0306 33.1532C19.8814 29.4307 21.1568 24.6707 24.8793 22.5215C28.6018 20.3724 33.3618 21.6478 35.5109 25.3703L40.5485 34.0955C41.1793 33.1978 42.011 32.4198 43.0237 31.835C45.7094 30.2844 48.9352 30.5165 51.3309 32.1641C51.9925 30.9602 52.9812 29.9163 54.2577 29.1793C56.5182 27.8743 59.1608 27.8319 61.3697 28.8334C62.003 27.3103 63.1234 25.9757 64.6625 25.0872C68.3851 22.938 73.1447 24.2134 75.2943 27.936L87.1801 48.5229C87.1867 48.5346 87.1932 48.5457 87.1997 48.5574C94.2066 60.7361 90.0282 76.2931 77.856 83.3209C68.7367 88.5859 57.7227 87.5679 49.8132 81.6298C49.2391 81.1987 48.7784 80.8733 48.3363 80.6183L26.4746 67.9961C22.752 65.8472 21.4766 61.087 23.6258 57.3644C25.775 53.6418 30.5349 52.3668 34.2574 54.5157L34.4177 54.6083ZM43.1339 61.8794C43.4261 62.3855 43.2527 63.0324 42.7467 63.3246C42.4193 63.5137 42.0159 63.5137 41.6886 63.3246L32.3009 57.9044C30.45 56.8361 28.0832 57.4701 27.0146 59.3209C25.946 61.1718 26.5801 63.5385 28.4311 64.6074L50.2929 77.229C50.946 77.6066 51.5596 78.0474 52.1626 78.5007C58.8627 83.5309 68.1849 84.3859 75.8995 79.9322C86.2117 73.9785 89.7451 60.7922 83.7908 50.48L71.9049 29.8925C70.8367 28.0415 68.4699 27.4074 66.6191 28.476C65.4197 29.1684 64.731 30.4057 64.686 31.6947C64.6808 31.8426 64.684 31.9912 64.6958 32.1398C64.7401 32.6945 64.9058 33.2483 65.2025 33.7624L71.5599 44.774C72.0177 45.5672 71.7464 46.5814 70.9527 47.0398C70.1597 47.4977 69.1456 47.2257 68.6871 46.4327L61.5008 33.9845C61.328 33.6853 61.1212 33.4177 60.8877 33.1841C59.6799 31.973 57.7658 31.6723 56.2143 32.5681C55.0208 33.2572 54.3327 34.4863 54.2819 35.7687C54.2538 36.4748 54.4182 37.1972 54.7977 37.8544L61.9847 50.3027C62.4425 51.0957 62.1706 52.1098 61.3775 52.5683C60.5845 53.0261 59.5697 52.7542 59.1119 51.9611L50.2666 36.6403C49.1979 34.7894 46.8312 34.1552 44.9802 35.2238C43.7866 35.913 43.099 37.142 43.0478 38.4244C43.0196 39.1306 43.1843 39.8529 43.5638 40.5101L52.4092 55.8305C52.8672 56.6242 52.5954 57.6383 51.8021 58.0961C51.0088 58.5546 49.9945 58.2827 49.5365 57.4896L32.1222 27.3268C31.0535 25.4759 28.6868 24.8417 26.8359 25.9104C24.9849 26.979 24.3508 29.3458 25.4194 31.1967L43.1339 61.8794Z" fill="#665CD1"/>
</svg>
