<svg width="16" height="17" viewBox="0 0 16 17" fill="none" xmlns="http://www.w3.org/2000/svg">
<g clip-path="url(#clip0_1500_4905)">
<path d="M7.50935 1.43942C7.71823 1.04614 8.28176 1.04614 8.49065 1.43942L10.3273 4.89759C10.4076 5.04878 10.5532 5.1545 10.7218 5.18415L14.5782 5.86233C15.0168 5.93945 15.191 6.4754 14.8815 6.79559L12.1601 9.61102C12.0412 9.73412 11.9856 9.90519 12.0095 10.0747L12.5562 13.952C12.6184 14.3929 12.1625 14.7242 11.7623 14.5288L8.24377 12.8107C8.08994 12.7355 7.91006 12.7355 7.75623 12.8107L4.23765 14.5288C3.8375 14.7242 3.38159 14.393 3.44377 13.952L3.99051 10.0747C4.01441 9.90519 3.95883 9.73412 3.83985 9.61102L1.11851 6.79559C0.809025 6.4754 0.983165 5.93945 1.42175 5.86233L5.27823 5.18415C5.44683 5.1545 5.59236 5.04878 5.67266 4.89759L7.50935 1.43942Z" fill="#665CD1"/>
</g>
<defs>
<clipPath id="clip0_1500_4905">
<rect width="16" height="16" fill="white" transform="translate(0 0.515625)"/>
</clipPath>
</defs>
</svg>
